PathFileType	3	(X/Y/Z)	squats_1__view1_aligned.trc
DataRate	CameraRate	NumFrames	NumMarkers	Units	OrigDataRate	OrigDataStartFrame	OrigNumFrames
100.0	100.0	13	19	mm	100.0	1381	1660
Frame#	Time	pelvis			neck			head			hip_left			hip_right			knee_left			knee_right			ankle_left			ankle_right			heel_left			heel_right			toe_left			toe_right			shoulder_left			shoulder_right			elbow_left			elbow_right			wrist_left			wrist_right			
		X1	Y1	Z1	X2	Y2	Z2	X3	Y3	Z3	X4	Y4	Z4	X5	Y5	Z5	X6	Y6	Z6	X7	Y7	Z7	X8	Y8	Z8	X9	Y9	Z9	X10	Y10	Z10	X11	Y11	Z11	X12	Y12	Z12	X13	Y13	Z13	X14	Y14	Z14	X15	Y15	Z15	X16	Y16	Z16	X17	Y17	Z17	X18	Y18	Z18	X19	Y19	Z19	
1381	13.80000	86.416329	845.349438	88.450823	83.902104	1385.773277	-148.466885	89.745982	1535.088452	-264.986291	6.788798	852.727703	95.592028	166.044036	837.971168	81.309446	-148.800099	485.601323	-76.714530	194.673695	457.987815	-133.187226	-150.098064	146.039956	152.911744	203.542712	111.096341	88.023031	-140.479083	107.779457	198.652784	204.412977	76.259540	138.377682	-210.209405	65.008079	-11.779150	198.326188	10.114710	-80.138418	-108.838280	1319.347948	-97.816819	278.218000	1314.968687	-117.861495	-201.313821	1042.951035	-30.860689	319.817805	1017.019738	-80.670830	-172.555113	803.049529	-133.622578	321.707410	759.744953	-156.132590
1382	13.81000	87.069876	852.893685	84.305870	85.297338	1395.403985	-148.761038	91.538361	1545.241557	-265.102500	7.590027	860.257022	91.251798	166.549903	845.530344	77.359770	-146.234916	488.169099	-71.600984	194.792382	461.388906	-128.060027	-150.787198	145.966733	153.774468	203.613356	111.371339	88.253659	-141.615875	107.334431	199.256043	204.377499	76.116635	138.259294	-209.897590	65.739180	-11.979141	198.954857	10.886294	-80.711106	-107.524788	1328.571184	-98.036281	279.584303	1324.377983	-117.879231	-198.172309	1051.864629	-28.894482	321.205535	1026.657482	-79.006916	-169.881798	809.820244	-127.743917	324.612957	767.372660	-151.702427
1383	13.82000	87.723424	860.437933	80.160917	86.692571	1405.034694	-149.055191	93.330739	1555.394663	-265.218710	8.391256	867.786341	86.911569	167.055770	853.089521	73.410095	-143.669734	490.736874	-66.487438	194.911069	464.789997	-122.932829	-151.476332	145.893509	154.637193	203.684000	111.646338	88.484287	-142.752667	106.889406	199.859303	204.342022	75.973729	138.140905	-209.585775	66.470280	-12.179132	199.583527	11.657878	-81.283794	-106.211297	1337.794421	-98.255743	280.950606	1333.787278	-117.896967	-195.030797	1060.778224	-26.928275	322.593265	1036.295226	-77.343001	-167.208483	816.590959	-121.865257	327.518505	775.000367	-147.272263
1384	13.83000	88.376971	867.982181	76.015964	88.087805	1414.665403	-149.349344	95.123117	1565.547768	-265.334920	9.192485	875.315660	82.571340	167.561636	860.648697	69.460419	-141.104551	493.304649	-61.373892	195.029755	468.191088	-117.805630	-152.165466	145.820285	155.499917	203.754644	111.921336	88.714915	-143.889459	106.444380	200.462562	204.306545	75.830824	138.022517	-209.273960	67.201381	-12.379124	200.212197	12.429463	-81.856482	-104.897806	1347.017657	-98.475205	282.316909	1343.196574	-117.914704	-191.889285	1069.691818	-24.962068	323.980994	1045.932970	-75.679087	-164.535169	823.361675	-115.986596	330.424052	782.628074	-142.842100
1385	13.84000	89.030519	875.526428	71.871011	89.483039	1424.296112	-149.643497	96.915496	1575.700874	-265.451130	9.993714	882.844979	78.231110	168.067503	868.207874	65.510744	-138.539368	495.872424	-56.260346	195.148442	471.592180	-112.678432	-152.854599	145.747062	156.362641	203.825288	112.196334	88.945543	-145.026252	105.999354	201.065821	204.271067	75.687918	137.904128	-208.962145	67.932482	-12.579115	200.840866	13.201047	-82.429170	-103.584315	1356.240894	-98.694668	283.683213	1352.605869	-117.932440	-188.747773	1078.605412	-22.995861	325.368724	1055.570713	-74.015172	-161.861854	830.132390	-110.107936	333.329600	790.255781	-138.411936
1386	13.85000	89.684066	883.070676	67.726058	90.878272	1433.926821	-149.937650	98.707874	1585.853979	-265.567340	10.794943	890.374298	73.890881	168.573370	875.767050	61.561068	-135.974186	498.440200	-51.146800	195.267129	474.993271	-107.551233	-153.543733	145.673838	157.225366	203.895933	112.471333	89.176171	-146.163044	105.554329	201.669081	204.235590	75.545012	137.785740	-208.650330	68.663583	-12.779107	201.469536	13.972632	-83.001858	-102.270824	1365.464130	-98.914130	285.049516	1362.015165	-117.950176	-185.606261	1087.519006	-21.029654	326.756453	1065.208457	-72.351258	-159.188539	836.903106	-104.229275	336.235147	797.883488	-133.981773
1387	13.86000	88.069553	888.107028	65.897407	89.739801	1440.856740	-147.339420	97.602592	1592.893331	-262.926979	9.355674	895.332875	71.898754	166.783594	880.881177	59.895907	-135.051698	500.236958	-44.890443	193.280122	477.353264	-100.480180	-155.195750	145.268393	159.229857	201.869087	112.472192	91.754647	-148.171699	104.849242	203.425092	202.111385	75.228467	140.049202	-209.306288	68.825038	-11.622862	199.761875	14.313478	-80.970261	-103.138434	1372.428391	-96.061016	283.609079	1368.819276	-115.162661	-185.713431	1094.493034	-16.733209	325.631594	1072.234208	-68.279507	-161.976609	842.013044	-96.623942	337.800029	804.215833	-128.811228
1388	13.87000	86.455040	893.143380	64.068755	88.601330	1447.786659	-144.741189	96.497311	1599.932683	-260.286617	7.916405	900.291452	69.906628	164.993818	885.995304	58.230746	-134.129211	502.033715	-38.634085	191.293116	479.713258	-93.409127	-156.847767	144.862948	161.234348	199.842241	112.473052	94.333123	-150.180355	104.144155	205.181103	199.987180	74.911921	142.312664	-209.962246	68.986494	-10.466617	198.054214	14.654324	-78.938665	-104.006044	1379.392651	-93.207903	282.168641	1375.623386	-112.375147	-185.820600	1101.467062	-12.436763	324.506734	1079.259959	-64.207756	-164.764679	847.122982	-89.018610	339.364911	810.548177	-123.640682
1389	13.88000	84.840527	898.179732	62.240103	87.462858	1454.716578	-142.142959	95.392029	1606.972035	-257.646256	6.477136	905.250030	67.914501	163.204041	891.109430	56.565584	-133.206724	503.830473	-32.377728	189.306109	482.073251	-86.338074	-158.499785	144.457504	163.238840	197.815395	112.473912	96.911599	-152.189011	103.439068	206.937114	197.862975	74.595376	144.576126	-210.618205	69.147950	-9.310372	196.346553	14.995170	-76.907069	-104.873654	1386.356911	-90.354789	280.728204	1382.427497	-109.587632	-185.927769	1108.441089	-8.140317	323.381874	1086.285711	-60.136006	-167.552749	852.232920	-81.413277	340.929793	816.880522	-118.470137
1390	13.89000	83.226013	903.216083	60.411451	86.324387	1461.646498	-139.544729	94.286747	1614.011387	-255.005895	5.037866	910.208607	65.922374	161.414265	896.223557	54.900423	-132.284236	505.627231	-26.121370	187.319103	484.433245	-79.267021	-160.151802	144.052059	165.243331	195.788550	112.474772	99.490076	-154.197666	102.733981	208.693126	195.738770	74.278830	146.839588	-211.274163	69.309406	-8.154128	194.638892	15.336017	-74.875473	-105.741264	1393.321171	-87.501676	279.287767	1389.231607	-106.800117	-186.034939	1115.415117	-3.843872	322.257014	1093.311462	-56.064255	-170.340819	857.342858	-73.807944	342.494675	823.212867	-113.299592
1391	13.90000	81.611500	908.252435	58.582799	85.185916	1468.576417	-136.946499	93.181466	1621.050740	-252.365534	3.598597	915.167184	63.930248	159.624489	901.337684	53.235261	-131.361749	507.423989	-19.865013	185.332096	486.793238	-72.195968	-161.803819	143.646614	167.247823	193.761704	112.475632	102.068552	-156.206322	102.028894	210.449137	193.614565	73.962284	149.103050	-211.930121	69.470862	-6.997883	192.931231	15.676863	-72.843877	-106.608874	1400.285432	-84.648562	277.847329	1396.035718	-104.012602	-186.142108	1122.389145	0.452574	321.132154	1100.337213	-51.992504	-173.128889	862.452795	-66.202611	344.059556	829.545212	-108.129047
1392	13.91000	79.996987	913.288787	56.754147	84.047444	1475.506336	-134.348269	92.076184	1628.090092	-249.725173	2.159328	920.125762	61.938121	157.834712	906.451811	51.570100	-130.439262	509.220747	-13.608655	183.345090	489.153231	-65.124915	-163.455836	143.241169	169.252314	191.734858	112.476492	104.647028	-158.214977	101.323807	212.205148	191.490360	73.645739	151.366512	-212.586080	69.632318	-5.841638	191.223570	16.017709	-70.812281	-107.476484	1407.249692	-81.795449	276.406892	1402.839828	-101.225087	-186.249278	1129.363173	4.749020	320.007294	1107.362964	-47.920753	-175.916959	867.562733	-58.597279	345.624438	835.877557	-102.958502
1393	13.92000	78.382474	918.325139	54.925496	82.908973	1482.436255	-131.750038	90.970902	1635.129444	-247.084811	0.720059	925.084339	59.945995	156.044936	911.565937	49.904939	-129.516775	511.017505	-7.352298	181.358083	491.513225	-58.053861	-165.107854	142.835725	171.256805	189.708012	112.477352	107.225504	-160.223633	100.618720	213.961159	189.366155	73.329193	153.629974	-213.242038	69.793774	-4.685393	189.515909	16.358555	-68.780685	-108.344094	1414.213952	-78.942335	274.966455	1409.643939	-98.437572	-186.356447	1136.337201	9.045466	318.882434	1114.388715	-43.849002	-178.705029	872.672671	-50.991946	347.189320	842.209901	-97.787956
